# xmcd
# 
# Track frame offsets:
#	150
#	9005
#	21020
#	34187
#	44590
#	53462
#	63535
#	72502
#	83550
#	94540
#	106122
#	117162
#
# Disc length: 1673 seconds
#
# Revision: 1
# Processed by: cddbd v1.4PL0 Copyright (c) Steve Scherf et al.
# Submitted via: Audio-CD-Archiv 2.10.446
#
DISCID=8906870c
DTITLE=Gene Autry - Tears on my Pillow
DYEAR=1900
DGENRE=country
TTITLE0=You are my Sunshine
TTITLE1=I Hang my Head and Cry
TTITLE2=Blues Stay Away from me
TTITLE3=San Antinio Rose
TTITLE4=Tears on my Pillow
TTITLE5=Be Honest with me
TTITLE6=Goodby Little Darlin'
TTITLE7=Hang Your Head in Shame
TTITLE8=Trouble in Mind
TTITLE9=Lonely River
TTITLE10=You are the Only Star
TTITLE11=Tweedle o'Twill
EXTD=
EXTT0=
EXTT1=
EXTT2=
EXTT3=
EXTT4=
EXTT5=
EXTT6=
EXTT7=
EXTT8=
EXTT9=
EXTT10=
EXTT11=
PLAYORDER=
